<?xml version="1.0" encoding="utf-8"?>
<!-- Generator: Adobe Illustrator 26.2.1, SVG Export Plug-In . SVG Version: 6.00 Build 0)  -->
<svg version="1.1" id="Layer_1" xmlns="http://www.w3.org/2000/svg" xmlns:xlink="http://www.w3.org/1999/xlink" x="0px" y="0px"
	 viewBox="0 0 1080 1080" style="enable-background:new 0 0 1080 1080;" xml:space="preserve">
<g id="Component_8_6" transform="translate(223.181 5)">
	<path id="Path_41" d="M-142.77,515.73h919.05c-3.23,25.91-6.04,51.34-9.6,76.41c-15.14,109.33-30.38,218.66-45.72,327.98
		c-1.6,11.51-2.78,23.1-4.86,34.52c-6.03,49.25-49.25,85.37-98.79,82.57c-200.07,0.14-400.15,0.14-600.22,0
		c-53.09,2.44-98.1-38.62-100.53-91.71c0-0.03,0-0.07,0-0.11c-11.23-89.03-24.52-177.76-36.88-266.65
		C-127.76,625.03-135.07,571.39-142.77,515.73z M75.47,679.96c0-14.19,0-28.42,0-42.61c1.8-12.55-6.91-24.18-19.46-25.98
		c-1.64-0.23-3.29-0.29-4.94-0.17c-29.03-0.46-58.09-0.46-87.16,0c-11.89-0.9-22.26,8.01-23.17,19.9c-0.08,1.1-0.08,2.2,0,3.3
		c-0.46,29.05-0.46,58.11,0,87.16c-1.17,12.17,7.74,22.99,19.91,24.16c1.41,0.14,2.84,0.14,4.25,0c28.39,0.27,56.81,0.18,85.23,0
		c12.53,1.43,23.84-7.57,25.27-20.1c0.19-1.7,0.2-3.42,0.01-5.12c0.3-13.56,0.06-27.12,0.06-40.68V679.96z M281.44,678.18
		c0-14.22,0.27-28.42,0-42.61c1.15-12.29-7.89-23.18-20.18-24.33c-1.33-0.12-2.66-0.13-3.98-0.01c-29.05-0.45-58.11-0.51-87.16,0
		c-11.92-0.96-22.36,7.92-23.33,19.84c-0.09,1.08-0.09,2.16-0.02,3.23c-0.48,29.69-0.63,59.41,0,89.09
		c-0.54,11.9,8.67,21.98,20.57,22.52c1.12,0.05,2.24,0.01,3.35-0.11c28.42,0.21,56.81,0,85.23,0c12.49,1.51,23.83-7.39,25.34-19.88
		c0.21-1.72,0.22-3.46,0.03-5.19c0.39-14.31,0.15-28.51,0.15-42.73L281.44,678.18z M419.76,745.89c14.19,0,28.42,0,42.61,0
		c12.18,1.53,23.29-7.11,24.82-19.29c0.17-1.38,0.22-2.78,0.13-4.17c0.63-29.05,0.42-58.11,0-87.16
		c1.25-11.88-7.37-22.52-19.25-23.76c-1.08-0.11-2.17-0.15-3.25-0.1c-29.69-0.73-59.41-0.66-89.09,0
		c-11.93-0.82-22.27,8.18-23.09,20.11c-0.07,1.07-0.07,2.15,0.02,3.23c-0.42,29.05-0.42,58.11,0,87.16
		c-1.15,12.21,7.81,23.03,20.02,24.18c1.46,0.14,2.93,0.13,4.39-0.02c14.31-0.15,28.51-0.36,42.73-0.33L419.76,745.89z
		 M693.53,678.87c0-14.19,0-28.42,0-42.61c1.53-12.2-7.13-23.32-19.32-24.85c-1.37-0.17-2.76-0.21-4.14-0.13
		c-29.05-0.6-58.11-0.45-87.16,0c-12.24-1.11-23.07,7.91-24.18,20.16c-0.13,1.4-0.12,2.82,0.02,4.22c-0.38,28.39-0.38,56.8,0,85.23
		c-1.4,12.48,7.59,23.73,20.07,25.13c1.76,0.2,3.54,0.18,5.29-0.03c27.76,0,55.54,0,83.29,0c12.77,1.67,24.47-7.32,26.15-20.08
		c0.27-2.08,0.26-4.18-0.02-6.25c0.09-13.83,0-27.39,0-40.83L693.53,678.87z M177.4,895.3c0-14.86,0-29.75,0-44.61
		c1.82-10.79-5.46-21.01-16.25-22.83c-1.97-0.33-3.98-0.36-5.95-0.1c-29.72,0-59.47,0-89.18,0c-10.49-1.31-20.06,6.14-21.37,16.63
		c-0.21,1.69-0.19,3.4,0.05,5.08c0,29.72,0,59.47,0,89.18c-1.59,10.42,5.56,20.16,15.98,21.75c1.71,0.26,3.44,0.29,5.16,0.08
		c30.38,0.16,60.75,0.16,91.12,0c10.15,1.12,19.28-6.19,20.4-16.34c0.16-1.41,0.15-2.83-0.02-4.23c0.12-15.1,0.06-29.95,0.06-44.82
		L177.4,895.3z M456.64,893.03c0,14.86,0.18,29.75,0,44.61c-1.92,10.7,5.2,20.94,15.9,22.86c2.05,0.37,4.15,0.41,6.21,0.12
		c29.72,0,59.47,0,89.18,0c10.45,1.42,20.06-5.9,21.48-16.35c0.23-1.72,0.23-3.47-0.01-5.19c0-29.72,0-59.45,0-89.18
		c1.64-10.46-5.52-20.27-15.98-21.91c-1.71-0.27-3.44-0.3-5.16-0.1c-30.38-0.18-60.77-0.18-91.15,0
		c-10.25-1.04-19.41,6.43-20.46,16.68c-0.13,1.29-0.13,2.6,0.01,3.89c-0.15,14.58,0.03,29.53,0,44.39L456.64,893.03z M383.37,893.03
		c0-14.22,0-28.45,0-42.67c1.61-10.82-5.86-20.9-16.68-22.51c-1.96-0.29-3.95-0.29-5.91,0.01c-29.09,0-58.18,0-87.25,0
		c-10.8-1.78-20.99,5.52-22.78,16.31c-0.32,1.96-0.35,3.95-0.08,5.91c0,29.72,0,59.44,0,89.18c-1.4,10.45,5.93,20.06,16.37,21.46
		c1.73,0.23,3.49,0.23,5.22-0.02c29.74,0.12,59.47,0.12,89.18,0c15.28,0,22.26-7.94,21.99-23.1s-0.03-30.02-0.03-44.88
		L383.37,893.03z"/>
	<path id="Path_42" d="M726.09,329.84c29.39,0,59.01-1.75,88.31,0.51c25.06,3.27,43.31,25.36,41.8,50.59
		c0.82,20.02,0.85,40.17,0,60.19c0.82,28.16-21.35,51.65-49.51,52.46c-1.79,0.05-3.58,0.01-5.37-0.13c-323.03,0-646.06,0-969.09,0
		c-27.99,1.97-52.27-19.12-54.24-47.11c-0.09-1.29-0.13-2.58-0.12-3.87c-1.09-20.66-1-41.47,0-62.12
		c-0.54-28.05,21.76-51.23,49.81-51.77c0.69-0.01,1.38-0.01,2.07,0c20.69-0.94,41.41-0.21,62.15-0.24h14.83
		c-1.64,18.01-1.42,36.15,0.63,54.12c6.05,32.3,31.44,57.48,63.78,63.27c32.33,8.44,66.58-3.33,86.89-29.87
		c20.36-25.13,39.65-51.13,60.55-75.78c5.6-6.44,13.46-10.47,21.96-11.27c117.82-0.71,235.61-0.71,353.35,0
		c7.91,0.67,15.25,4.35,20.54,10.27c18.91,22.11,36.6,45.3,54.36,68.2c25.45,40.69,79.06,53.04,119.74,27.59
		c33.85-21.17,48.92-62.7,36.52-100.65C725.16,332.73,725.51,331.24,726.09,329.84z"/>
	<path id="Path_43" d="M363.43,95.99c2-28.72,20.31-53.74,47.08-64.33c27.12-9.76,57.43-0.55,74.54,22.65
		c44.61,56.2,88.82,112.77,133.22,169.13c24.8,31.5,49.86,62.79,74.3,94.56c24.11,27.19,21.62,68.79-5.57,92.9
		c-27.19,24.11-68.79,21.62-92.9-5.57c-1.79-2.02-3.46-4.15-4.99-6.39C520,311.8,451.23,224.39,382.79,136.7
		C374.87,123.88,368.37,110.23,363.43,95.99z"/>
	<path id="Path_44" d="M270.75,94.78c-4.62,14.37-10.9,28.16-18.72,41.07C183.06,224.77,113.49,313.2,43.3,401.15
		c-21.78,28.99-62.94,34.84-91.93,13.05s-34.84-62.94-13.05-91.93c0.82-1.1,1.68-2.17,2.57-3.21
		C6.97,234.49,73.08,149.93,140.43,66.33c11.5-15.21,26.79-27.13,44.34-34.58c35.7-10.33,73.01,10.22,83.35,45.92
		C269.72,83.24,270.61,88.99,270.75,94.78z"/>
</g>
</svg>
