<?xml version="1.0" encoding="utf-8"?>
<!-- Generator: Adobe Illustrator 26.2.1, SVG Export Plug-In . SVG Version: 6.00 Build 0)  -->
<svg version="1.1" id="Layer_1" xmlns="http://www.w3.org/2000/svg" xmlns:xlink="http://www.w3.org/1999/xlink" x="0px" y="0px"
	 viewBox="0 0 1080 1080" style="enable-background:new 0 0 1080 1080;" xml:space="preserve">
<g id="Component_15_6" transform="translate(74.739 4.577)">
	<path id="Path_39" d="M492.82-4.61c24.05,7.31,47.54,16.38,70.26,27.12c88.48,47.69,127.5,153.88,90.94,247.51
		c-36.95,94.11-137.34,146.89-235.82,123.97c-86.92-23.35-149.06-99.8-154.15-189.65c-1.35-92.59,59.12-174.76,147.93-200.99
		C419.63,1,427.1-1.9,434.54-4.58L492.82-4.61z"/>
	<path id="Path_40" d="M474.81,1075.13c-86.69,2.51-172.8-14.99-251.64-51.13c-17.13-9.02-33.21-19.91-47.94-32.48
		c-31.38-25.27-48.55-64.2-46.04-104.41c-0.84-127.01,50.38-248.83,141.75-337.07c102.5-107.12,272.36-111.07,379.73-8.83
		c104.66,92.66,160.35,228.67,150.74,368.13c-3.68,41.09-27.61,77.64-63.79,97.45c-58.36,36.57-124.79,58.27-193.49,63.21
		C518.27,1073.07,492.11,1073.91,474.81,1075.13z"/>
</g>
</svg>
