<?xml version="1.0" encoding="utf-8"?>
<!-- Generator: Adobe Illustrator 26.2.1, SVG Export Plug-In . SVG Version: 6.00 Build 0)  -->
<svg version="1.1" id="Layer_1" xmlns="http://www.w3.org/2000/svg" xmlns:xlink="http://www.w3.org/1999/xlink" x="0px" y="0px"
	 viewBox="0 0 1080 1080" style="enable-background:new 0 0 1080 1080;" xml:space="preserve">
<g id="Component_12_5" transform="translate(0 5)">
	<path id="Path_57" d="M540.92,1075C242.69,1075.5,0.51,834.15,0.01,535.92C-0.5,237.68,240.85-4.49,539.09-5
		C837.21-5.51,1079.34,235.68,1080,533.8C1080.19,831.95,839.06,1074.02,540.92,1075z M539.14,1001.85
		c258.2,0.83,468.19-207.82,469.02-466.02S800.35,67.64,542.14,66.81C283.94,65.98,73.95,274.62,73.12,532.83c0,0.37,0,0.76,0,1.13
		c-0.22,257.78,208.27,467.1,466.05,467.89H539.14z"/>
	<path id="Path_58" d="M476.71,620.52c0-66.67,0-133.34,0-200c-3.06-18.64,9.57-36.23,28.21-39.29c3.61-0.59,7.3-0.6,10.92-0.02
		c17.39,0,34.84-0.37,52.24,0c18.54-1.47,34.77,12.37,36.24,30.92c0.15,1.94,0.14,3.89-0.04,5.82c0.24,135.33,0.24,270.67,0,406.01
		c1.42,18.7-12.59,35.01-31.29,36.43c-1.82,0.14-3.64,0.13-5.45-0.02c-18.37,0.37-36.74,0.46-55.11,0
		c-18.55,1.32-34.66-12.66-35.98-31.22c-0.13-1.84-0.11-3.69,0.06-5.52c-0.15-67.67,0-135.33,0-203L476.71,620.52z"/>
	<path id="Path_59" d="M476.68,274.5c0-10.93-0.37-21.9,0-32.82c-0.36-17.31,13.32-31.65,30.62-32.12c21.83-0.92,43.75-0.92,65.59,0
		c17.57,0.31,31.55,14.81,31.24,32.38c-0.01,0.36-0.02,0.71-0.04,1.06c0.7,21.43,0.67,42.86,0,64.3
		c0.09,17.72-14.21,32.16-31.93,32.24c-0.18,0-0.37,0-0.55,0c-20.36,0.7-40.78,0.73-61.24,0c-17.85,0.96-33.1-12.72-34.06-30.57
		c-0.08-1.53-0.06-3.06,0.08-4.58C476.56,294.43,476.65,284.42,476.68,274.5z"/>
</g>
</svg>
