<?xml version="1.0" encoding="utf-8"?>
<!-- Generator: Adobe Illustrator 26.2.1, SVG Export Plug-In . SVG Version: 6.00 Build 0)  -->
<svg version="1.1" id="Layer_1" xmlns="http://www.w3.org/2000/svg" xmlns:xlink="http://www.w3.org/1999/xlink" x="0px" y="0px"
	 viewBox="0 0 1080 1080" style="enable-background:new 0 0 1080 1080;" xml:space="preserve">
<g id="Component_13_5" transform="translate(137.737 1)">
	<path id="Path_55" d="M402.67,204.05l73.47,66.78c107.11,97.33,214.26,194.63,321.47,291.88c7.03,5.76,10.91,14.53,10.46,23.61
		c-0.36,138.62-0.46,277.23-0.31,415.83v11.93h-294.3V720.59H292.13v293.26H-2.52c-0.18-3.06-0.59-6.34-0.59-9.64
		c0-140.14-0.08-280.29-0.25-420.43c-0.39-7.2,2.63-14.17,8.17-18.8c130.51-118.4,260.92-236.91,391.22-355.53
		C397.83,207.64,399.97,206.18,402.67,204.05z"/>
	<path id="Path_56" d="M402.29,161.38L-89.84,600.06l-47.98-55.36L402.24,61.74l540.03,482.84l-47.88,55.51L402.29,161.38z"/>
</g>
</svg>
