<?xml version="1.0" encoding="utf-8"?>
<!-- Generator: Adobe Illustrator 25.4.1, SVG Export Plug-In . SVG Version: 6.00 Build 0)  -->
<svg version="1.1" id="Layer_1" xmlns="http://www.w3.org/2000/svg" xmlns:xlink="http://www.w3.org/1999/xlink" x="0px" y="0px"
	 viewBox="0 0 100 100" style="enable-background:new 0 0 100 100;" xml:space="preserve">
<style type="text/css">
	.st0{display:none;}
	.st1{fill:#FFFFFF;}
</style>
<rect x="0" y="0" class="st0" width="100" height="100"/>
<path id="Path_45" class="st1" d="M74.8,0.1c5.5,0,11.1,0,16.6,0c4.2-0.5,8.1,2.5,8.6,6.7c0.1,0.6,0.1,1.3,0,1.9
	c0,10.8,0,21.6,0,32.4c0.1,3.5-1.2,6.8-3.8,9.2C80.7,65.6,65.3,81.1,49.9,96.5c-4.1,4.1-7.2,4.1-11.3,0
	C26.9,84.7,15.1,72.9,3.3,61.1c-3.8-3.8-3.8-7,0-10.9C19,34.5,34.7,18.8,50.4,3.1c2.1-2.1,5-3.2,8-3.1L74.8,0.1L74.8,0.1z M74.7,4.4
	c-5.5,0-11.1,0-16.6,0c-1.8-0.1-3.6,0.7-4.9,2C37.7,22,22,37.7,6.4,53.3c-2.2,2.2-2.2,2.6,0,4.9l35.5,35.5c2.2,2.2,2.6,2.2,4.9,0
	C62.3,78,77.9,62.5,93.5,46.9c1.4-1.3,2.2-3.2,2.2-5.1c-0.1-11.1,0-22.3,0-33.4c0-2.9-1.1-4-4.1-4C85.9,4.4,80.3,4.4,74.7,4.4z"/>
<path id="Path_46" class="st1" d="M43.2,48.9c-6.5,8.4-4.2,14.7,6.3,17.7c-2.9,3.9-3.8,4-7.7,1.4c-6.4-3.8-8.6-12.1-4.8-18.5
	c0.2-0.4,0.5-0.8,0.8-1.2c0.5-0.9,1.1-1.7,1.7-2.7l-2.3-2.5c2.3-1.6,2.3-1.6,4.6,0.2l1.5-1.9L41,38.9l2.9-1.3l1.9,1.8
	c12.9-6.1,22.6-2.4,23.9,9.1l-4.2,1.2c-0.5-4.1-1.5-7.9-5.9-9.3c-3.6-0.8-7.3,0.1-10.2,2.3l9.9,9.8c-2,1.6-3.4,1.7-4.9-0.1
	c-2.3-2.7-4.9-5.1-7.4-7.7l-2,1.8l8.9,8.5c-2,1.6-3.3,1.9-4.8,0.1C47.3,53,45.3,51.1,43.2,48.9z"/>
<path id="Path_47" class="st1" d="M80.6,11c4.7,0.3,8.3,4.3,8.1,9c-0.2,4.4-3.8,7.9-8.1,8.1c-4.7,0.2-8.8-3.4-9-8.1
	c-0.2-4.7,3.4-8.8,8.1-9C80,11,80.3,11,80.6,11z M80.5,15.2c-2.4,0-4.3,1.9-4.4,4.3c0,2.4,1.9,4.3,4.3,4.4c2.4,0,4.3-1.9,4.4-4.3
	c0,0,0-0.1,0-0.1C84.7,17.1,82.8,15.2,80.5,15.2L80.5,15.2z"/>
</svg>
