<?xml version="1.0" encoding="utf-8"?>
<!-- Generator: Adobe Illustrator 25.4.1, SVG Export Plug-In . SVG Version: 6.00 Build 0)  -->
<svg version="1.1" id="Layer_1" xmlns="http://www.w3.org/2000/svg" xmlns:xlink="http://www.w3.org/1999/xlink" x="0px" y="0px"
	 viewBox="0 0 100 100" style="enable-background:new 0 0 100 100;" xml:space="preserve">
<style type="text/css">
	.st0{display:none;}
	.st1{fill:#FFFFFF;}
</style>
<rect x="0" y="0" class="st0" width="100" height="100"/>
<path id="Path_41" class="st1" d="M7.4,47.6h85.2c-0.3,2.4-0.6,4.8-0.9,7.1c-1.4,10.1-2.8,20.3-4.2,30.4c-0.1,1.1-0.3,2.1-0.5,3.2
	c-0.6,4.6-4.6,7.9-9.2,7.7c-18.5,0-37.1,0-55.6,0c-4.9,0.2-9.1-3.6-9.3-8.5c0,0,0,0,0,0c-1-8.2-2.3-16.5-3.4-24.7
	C8.8,57.8,8.1,52.8,7.4,47.6z M27.6,62.9c0-1.3,0-2.6,0-3.9c0.2-1.2-0.6-2.2-1.8-2.4c-0.2,0-0.3,0-0.5,0c-2.7,0-5.4,0-8.1,0
	c-1.1-0.1-2.1,0.7-2.1,1.8c0,0.1,0,0.2,0,0.3c0,2.7,0,5.4,0,8.1C15,67.8,15.8,68.8,17,69c0.1,0,0.3,0,0.4,0c2.6,0,5.3,0,7.9,0
	c1.2,0.1,2.2-0.7,2.3-1.9c0-0.2,0-0.3,0-0.5C27.6,65.4,27.6,64.1,27.6,62.9L27.6,62.9z M46.7,62.7c0-1.3,0-2.6,0-3.9
	c0.1-1.1-0.7-2.1-1.9-2.3c-0.1,0-0.2,0-0.4,0c-2.7,0-5.4,0-8.1,0c-1.1-0.1-2.1,0.7-2.2,1.8c0,0.1,0,0.2,0,0.3c0,2.8-0.1,5.5,0,8.3
	c0,1.1,0.8,2,1.9,2.1c0.1,0,0.2,0,0.3,0c2.6,0,5.3,0,7.9,0c1.2,0.1,2.2-0.7,2.3-1.8c0-0.2,0-0.3,0-0.5C46.7,65.3,46.7,64,46.7,62.7
	L46.7,62.7z M59.5,69c1.3,0,2.6,0,3.9,0c1.1,0.1,2.2-0.7,2.3-1.8c0-0.1,0-0.3,0-0.4c0.1-2.7,0-5.4,0-8.1c0.1-1.1-0.7-2.1-1.8-2.2
	c-0.1,0-0.2,0-0.3,0c-2.8-0.1-5.5-0.1-8.3,0c-1.1-0.1-2.1,0.8-2.1,1.9c0,0.1,0,0.2,0,0.3c0,2.7,0,5.4,0,8.1
	c-0.1,1.1,0.7,2.1,1.9,2.2c0.1,0,0.3,0,0.4,0C56.9,69,58.2,69,59.5,69L59.5,69z M84.9,62.8c0-1.3,0-2.6,0-3.9
	c0.1-1.1-0.7-2.2-1.8-2.3c-0.1,0-0.3,0-0.4,0c-2.7-0.1-5.4,0-8.1,0c-1.1-0.1-2.1,0.7-2.2,1.9c0,0.1,0,0.3,0,0.4c0,2.6,0,5.3,0,7.9
	c-0.1,1.2,0.7,2.2,1.9,2.3c0.2,0,0.3,0,0.5,0c2.6,0,5.1,0,7.7,0c1.2,0.2,2.3-0.7,2.4-1.9c0-0.2,0-0.4,0-0.6
	C84.9,65.3,84.9,64,84.9,62.8L84.9,62.8z M37,82.8c0-1.4,0-2.8,0-4.1c0.2-1-0.5-1.9-1.5-2.1c-0.2,0-0.4,0-0.6,0c-2.8,0-5.5,0-8.3,0
	c-1-0.1-1.9,0.6-2,1.5c0,0.2,0,0.3,0,0.5c0,2.8,0,5.5,0,8.3c-0.1,1,0.5,1.9,1.5,2c0.2,0,0.3,0,0.5,0c2.8,0,5.6,0,8.4,0
	c0.9,0.1,1.8-0.6,1.9-1.5c0-0.1,0-0.3,0-0.4C37.1,85.5,37,84.2,37,82.8L37,82.8z M62.9,82.6c0,1.4,0,2.8,0,4.1
	c-0.2,1,0.5,1.9,1.5,2.1c0.2,0,0.4,0,0.6,0c2.8,0,5.5,0,8.3,0c1,0.1,1.9-0.5,2-1.5c0-0.2,0-0.3,0-0.5c0-2.8,0-5.5,0-8.3
	c0.2-1-0.5-1.9-1.5-2c-0.2,0-0.3,0-0.5,0c-2.8,0-5.6,0-8.4,0c-1-0.1-1.8,0.6-1.9,1.5c0,0.1,0,0.2,0,0.4
	C62.9,79.8,62.9,81.2,62.9,82.6L62.9,82.6z M56.1,82.6c0-1.3,0-2.6,0-4c0.1-1-0.5-1.9-1.5-2.1c-0.2,0-0.4,0-0.5,0
	c-2.7,0-5.4,0-8.1,0c-1-0.2-1.9,0.5-2.1,1.5c0,0.2,0,0.4,0,0.5c0,2.8,0,5.5,0,8.3c-0.1,1,0.5,1.9,1.5,2c0.2,0,0.3,0,0.5,0
	c2.8,0,5.5,0,8.3,0c1.4,0,2.1-0.7,2-2.1S56.1,84,56.1,82.6L56.1,82.6z"/>
<path id="Path_42" class="st1" d="M87.9,30.4c2.7,0,5.5-0.2,8.2,0c2.3,0.3,4,2.4,3.9,4.7c0.1,1.9,0.1,3.7,0,5.6
	c0.1,2.6-2,4.8-4.6,4.9c-0.2,0-0.3,0-0.5,0c-29.9,0-59.9,0-89.8,0c-2.6,0.2-4.8-1.8-5-4.4c0-0.1,0-0.2,0-0.4c-0.1-1.9-0.1-3.8,0-5.8
	c-0.1-2.6,2-4.7,4.6-4.8c0.1,0,0.1,0,0.2,0c1.9-0.1,3.8,0,5.8,0H12c-0.2,1.7-0.1,3.3,0.1,5c0.6,3,2.9,5.3,5.9,5.9
	c3,0.8,6.2-0.3,8.1-2.8c1.9-2.3,3.7-4.7,5.6-7c0.5-0.6,1.2-1,2-1c10.9-0.1,21.8-0.1,32.7,0c0.7,0.1,1.4,0.4,1.9,1
	c1.8,2,3.4,4.2,5,6.3c2.4,3.8,7.3,4.9,11.1,2.6c3.1-2,4.5-5.8,3.4-9.3C87.8,30.7,87.8,30.5,87.9,30.4z"/>
<path id="Path_43" class="st1" d="M54.3,8.7c0.2-2.7,1.9-5,4.4-6c2.5-0.9,5.3-0.1,6.9,2.1c4.1,5.2,8.2,10.4,12.3,15.7
	c2.3,2.9,4.6,5.8,6.9,8.8c2.2,2.5,2,6.4-0.5,8.6c-2.5,2.2-6.4,2-8.6-0.5c-0.2-0.2-0.3-0.4-0.5-0.6c-6.4-8.1-12.8-16.2-19.1-24.3
	C55.3,11.3,54.7,10.1,54.3,8.7z"/>
<path id="Path_44" class="st1" d="M45.7,8.6c-0.4,1.3-1,2.6-1.7,3.8C37.6,20.7,31.1,28.9,24.6,37c-2,2.7-5.8,3.2-8.5,1.2
	c-2.7-2-3.2-5.8-1.2-8.5c0.1-0.1,0.2-0.2,0.2-0.3C21.3,21.6,27.4,13.7,33.6,6c1.1-1.4,2.5-2.5,4.1-3.2c3.3-1,6.8,0.9,7.7,4.3
	C45.6,7.6,45.7,8.1,45.7,8.6z"/>
</svg>
