<?xml version="1.0" encoding="utf-8"?>
<!-- Generator: Adobe Illustrator 25.4.1, SVG Export Plug-In . SVG Version: 6.00 Build 0)  -->
<svg version="1.1" id="Layer_1" xmlns="http://www.w3.org/2000/svg" xmlns:xlink="http://www.w3.org/1999/xlink" x="0px" y="0px"
	 viewBox="0 0 100 100" style="enable-background:new 0 0 100 100;" xml:space="preserve">
<style type="text/css">
	.st0{display:none;}
	.st1{fill:#FFFFFF;}
</style>
<rect x="0" y="0" class="st0" width="100" height="100"/>
<path id="Path_49" class="st1" d="M50.8,99C27.9,99.2,8,83.5,2.8,61.2C-1.3,45,3.5,27.8,15.3,16C22.6,8.1,32.5,3,43.1,1.6
	c14.8-2.4,30,2.3,40.8,12.7c1,0.9,1.9,1.9,2.9,2.9c1.7,1.6,1.7,4.3,0.1,6s-4.3,1.7-6,0.1c-0.1-0.1-0.2-0.2-0.3-0.4
	C66.2,7.1,42,5.1,25.2,18.4c-7.8,6-13.1,14.8-14.6,24.5C8.2,55.5,12,68.4,20.9,77.6C27,84.4,35.3,88.8,44.4,90
	c13.4,2.2,27-2.6,36-12.8c0.7-0.8,1.6-1.4,2.6-1.6c1.8-0.4,3.6,0.5,4.5,2c0.9,1.6,0.8,3.6-0.5,5c-4.3,4.8-9.5,8.8-15.3,11.6
	C65.2,97.3,58.1,99,50.8,99z"/>
<path id="Path_50" class="st1" d="M84.7,45.6c-0.6-0.6-1.3-1.2-1.9-1.9c-1.9-1.9-3.8-3.7-5.6-5.6c-1.7-1.7-1.7-4.4,0-6
	c0.6-0.6,1.3-1,2.1-1.1c1.5-0.3,3,0.1,4,1.3c4.2,4.2,8.4,8.4,12.6,12.6c0.7,0.7,1.5,1.5,2.2,2.2c1.7,1.6,1.8,4.3,0.2,6
	c0,0-0.1,0.1-0.1,0.1c-5,5-9.9,9.9-14.9,14.9c-1.1,1.2-2.8,1.7-4.4,1.2c-2.2-0.7-3.5-3.1-2.8-5.3c0.2-0.7,0.6-1.3,1.1-1.8
	c2.3-2.4,4.7-4.7,7.1-7.1c0.2-0.1,0.3-0.3,0.5-0.4l-0.1-0.2H84c-12.7,0-25.3,0-38,0c-1.9,0-3.6-1.3-4.1-3.1
	c-0.5-1.8,0.2-3.7,1.8-4.7c0.8-0.5,1.7-0.7,2.6-0.6c12.5,0,25,0,37.5,0h0.7L84.7,45.6z"/>
</svg>
