<?xml version="1.0" encoding="utf-8"?>
<!-- Generator: Adobe Illustrator 25.4.1, SVG Export Plug-In . SVG Version: 6.00 Build 0)  -->
<svg version="1.1" id="Layer_1" xmlns="http://www.w3.org/2000/svg" xmlns:xlink="http://www.w3.org/1999/xlink" x="0px" y="0px"
	 viewBox="0 0 100 100" style="enable-background:new 0 0 100 100;" xml:space="preserve">
<style type="text/css">
	.st0{display:none;}
	.st1{fill:#FFFFFF;}
</style>
<rect x="0" y="0" class="st0" width="100" height="100"/>
<path id="Path_48" class="st1" d="M50.8,99c-7.3,0-14.6,0-22,0c-6.7,0.2-12.2-5-12.4-11.7c0-0.2,0-0.5,0-0.7c0-12.4,0-24.7,0-37.1
	c-0.2-4.7,2.5-9,6.7-11.1c0.6-0.2,0.9-0.8,0.8-1.4c0-3.5,0-6.9,0-10.4C24.1,11.8,36.3,0,51,0.1c14.6,0.2,26.3,12,26.5,26.6
	c0,3.4,0,6.9,0,10.3c-0.1,0.6,0.3,1.2,0.8,1.4c4.2,2.1,6.8,6.4,6.7,11.1c0,12.4,0,24.7,0,37.1c0.2,6.7-5.1,12.2-11.7,12.4
	c-0.2,0-0.5,0-0.7,0L50.8,99L50.8,99z M65.9,37c0-3.3,0-6.5,0-9.7c0-1.3-0.1-2.6-0.4-3.9c-1.8-8.2-9.9-13.3-18.1-11.5
	c-5.8,1.3-10.3,5.8-11.5,11.7c-0.3,2.2-0.4,4.4-0.4,6.5c-0.1,2.3,0,4.5,0,6.8L65.9,37z M46.9,75.8L46.9,75.8c0,2.1,0,4.2,0,6.2
	c-0.1,2.1,1.6,3.9,3.7,4c2.1,0.1,3.9-1.6,4-3.7c0-0.2,0-0.3,0-0.5c0-4,0-8,0-12c-0.1-0.7,0.3-1.4,0.9-1.8c1.9-1.4,3.1-3.5,3.2-5.9
	c0.2-4.3-3.1-8-7.5-8.3c-3.2-0.2-6.1,1.6-7.5,4.5c-1.6,3.3-0.7,7.3,2.2,9.5c0.7,0.5,1.1,1.3,1,2.2C46.8,72,46.9,73.9,46.9,75.8
	L46.9,75.8z"/>
</svg>
