<?xml version="1.0" encoding="utf-8"?>
<!-- Generator: Adobe Illustrator 25.4.1, SVG Export Plug-In . SVG Version: 6.00 Build 0)  -->
<svg version="1.1" id="Layer_1" xmlns="http://www.w3.org/2000/svg" xmlns:xlink="http://www.w3.org/1999/xlink" x="0px" y="0px"
	 viewBox="0 0 100 100" style="enable-background:new 0 0 100 100;" xml:space="preserve">
<style type="text/css">
	.st0{display:none;}
	.st1{fill:#FFFFFF;}
</style>
<rect x="0" y="0" class="st0" width="100" height="100"/>
<path id="Path_39" class="st1" d="M53,0c2.2,0.7,4.4,1.5,6.5,2.5c8.2,4.4,11.8,14.2,8.4,22.9C64.5,34.1,55.2,39,46.1,36.9
	c-8-2.2-13.8-9.2-14.3-17.6c-0.1-8.6,5.5-16.2,13.7-18.6c0.7-0.2,1.4-0.5,2.1-0.7L53,0z"/>
<path id="Path_40" class="st1" d="M51.3,100c-8,0.2-16-1.4-23.3-4.7c-1.6-0.8-3.1-1.8-4.4-3c-2.9-2.3-4.5-5.9-4.3-9.7
	c-0.1-11.8,4.7-23,13.1-31.2c9.5-9.9,25.2-10.3,35.2-0.8c9.7,8.6,14.8,21.2,14,34.1c-0.3,3.8-2.6,7.2-5.9,9
	C70.2,97,64.1,99,57.7,99.5C55.3,99.8,52.9,99.9,51.3,100z"/>
</svg>
